<svg xmlns="http://www.w3.org/2000/svg" viewBox="0 0 64 64" fill="none">
  <rect width="64" height="64" rx="14" fill="#3A0A0A"/>
  <path d="M20 26c0-5 4-8 9-8 4 0 7 2 8 5-2 1-3 2-3 4 0 3 2 5 5 5 4 0 7-3 7-8 0-7-6-12-15-12-8 0-15 5-16 13" stroke="#E8A33D" stroke-width="3" stroke-linecap="round"/>
  <path d="M16 40c0 8 7 14 16 14 7 0 13-4 15-10" stroke="#E8A33D" stroke-width="3" stroke-linecap="round"/>
  <circle cx="44" cy="18" r="2.5" fill="#E8A33D"/>
  <path d="M40 13c2-2 6-2 8 0" stroke="#E8A33D" stroke-width="2.5" stroke-linecap="round"/>
</svg>
